<?xml version="1.0" standalone="no"?>
<!DOCTYPE svg PUBLIC "-//W3C//DTD SVG 20010904//EN"
 "http://www.w3.org/TR/2001/REC-SVG-20010904/DTD/svg10.dtd">
<svg version="1.0" xmlns="http://www.w3.org/2000/svg"
 width="300.000000pt" height="300.000000pt" viewBox="0 0 300.000000 300.000000"
 preserveAspectRatio="xMidYMid meet">
<metadata>
Created by potrace 1.14, written by Peter Selinger 2001-2017
</metadata>
<g transform="translate(0.000000,300.000000) scale(0.100000,-0.100000)"
fill="#000000" stroke="none">
<path d="M1055 2832 c-106 -11 -401 -94 -427 -120 -5 -5 -36 -103 -69 -218
-33 -115 -71 -247 -85 -294 -14 -46 -28 -91 -29 -100 -2 -8 -20 -71 -40 -140
-21 -69 -39 -132 -41 -140 -2 -8 -10 -39 -18 -68 -26 -93 -9 -103 106 -60 193
71 334 98 478 93 95 -3 191 -20 245 -44 82 -36 137 -65 178 -92 47 -31 49 -31
66 -13 10 10 30 60 45 109 63 205 188 618 233 768 l35 119 -21 19 c-11 10 -23
19 -27 19 -4 0 -15 6 -23 14 -38 35 -236 122 -300 132 -14 3 -39 7 -56 11 -33
7 -202 10 -250 5z"/>
<path d="M1817 2528 c-2 -13 -35 -122 -72 -243 -36 -121 -68 -227 -70 -235 -6
-30 -125 -436 -139 -478 -9 -23 -13 -48 -10 -55 11 -31 189 -128 299 -165 113
-38 179 -47 335 -46 130 1 242 18 360 56 73 23 210 78 210 84 0 5 166 616 180
664 40 136 88 336 81 343 -5 5 -55 -7 -112 -26 -97 -33 -163 -49 -249 -63 -19
-3 -89 -7 -155 -8 -123 -3 -273 20 -371 57 -56 21 -201 93 -235 117 -35 26
-46 25 -52 -2z"/>
<path d="M650 1643 c-101 -18 -96 -17 -175 -41 -58 -19 -173 -61 -183 -67 -5
-4 -49 -165 -45 -165 3 0 0 -7 -7 -15 -7 -8 -10 -15 -7 -15 3 0 -4 -28 -15
-62 -11 -35 -21 -70 -23 -78 -2 -8 -29 -100 -60 -205 -31 -104 -58 -197 -60
-205 -2 -8 -20 -73 -40 -144 -33 -118 -35 -130 -20 -146 15 -17 21 -16 125 21
96 34 135 45 266 75 16 3 84 8 152 9 104 3 137 0 211 -20 77 -21 197 -69 211
-85 3 -3 15 -11 28 -17 12 -7 30 -18 41 -25 43 -26 49 -11 171 392 18 58 43
141 57 185 14 44 26 87 28 95 4 15 23 78 69 230 15 46 24 90 22 96 -11 28
-174 121 -276 156 -138 48 -315 60 -470 31z"/>
<path d="M1490 1308 c-18 -57 -34 -110 -37 -118 -3 -8 -7 -19 -8 -25 -2 -5
-22 -73 -45 -150 -23 -77 -43 -147 -45 -155 -2 -8 -15 -55 -30 -105 -14 -49
-28 -97 -30 -105 -7 -28 -53 -185 -68 -231 l-14 -45 38 -27 c125 -90 294 -158
434 -175 117 -14 294 -6 405 17 109 24 306 92 326 114 6 6 42 122 78 257 37
135 96 349 130 475 80 291 76 274 65 281 -5 3 -51 -8 -102 -25 -175 -57 -241
-70 -392 -76 -95 -3 -210 7 -301 29 -75 17 -232 85 -316 136 -26 16 -50 30
-53 30 -2 0 -18 -46 -35 -102z"/>
</g>
</svg>
